<svg width="192" height="135" viewBox="0 0 192 135" fill="none" xmlns="http://www.w3.org/2000/svg">
<path d="M31.2 0C22.9252 0 14.9894 3.28713 9.13827 9.13827C3.28713 14.9894 0 22.9252 0 31.2V103.2C0 111.475 3.28713 119.411 9.13827 125.262C14.9894 131.113 22.9252 134.4 31.2 134.4H160.8C164.897 134.4 168.954 133.593 172.74 132.025C176.525 130.457 179.965 128.159 182.862 125.262C185.759 122.365 188.057 118.925 189.625 115.14C191.193 111.354 192 107.297 192 103.2V31.2C192 27.1028 191.193 23.0456 189.625 19.2603C188.057 15.4749 185.759 12.0355 182.862 9.13827C179.965 6.24108 176.525 3.94291 172.74 2.37496C168.954 0.807014 164.897 0 160.8 0H31.2ZM41.088 50.112L48 57.024L54.912 50.112C55.5712 49.4046 56.366 48.8372 57.2492 48.4437C58.1324 48.0502 59.0858 47.8386 60.0526 47.8215C61.0193 47.8045 61.9796 47.9823 62.8761 48.3444C63.7727 48.7065 64.5871 49.2455 65.2708 49.9292C65.9545 50.6129 66.4935 51.4273 66.8556 52.3239C67.2177 53.2204 67.3955 54.1807 67.3785 55.1474C67.3614 56.1142 67.1498 57.0676 66.7563 57.9508C66.3628 58.834 65.7954 59.6288 65.088 60.288L58.1856 67.2L65.0976 74.0928C65.767 74.7616 66.2982 75.5557 66.6607 76.4298C67.0232 77.3038 67.2101 78.2407 67.2105 79.187C67.2109 80.1333 67.025 81.0704 66.6633 81.9448C66.3016 82.8192 65.7712 83.6138 65.1024 84.2832C64.4336 84.9526 63.6395 85.4838 62.7654 85.8463C61.8914 86.2088 60.9545 86.3957 60.0082 86.3961C59.0619 86.3965 58.1248 86.2106 57.2504 85.8489C56.376 85.4872 55.5814 84.9568 54.912 84.288L48 77.376L41.088 84.288C39.7231 85.5598 37.9179 86.2522 36.0526 86.2193C34.1873 86.1864 32.4076 85.4307 31.0884 84.1116C29.7693 82.7924 29.0136 81.0127 28.9807 79.1474C28.9478 77.2821 29.6402 75.4769 30.912 74.112L37.824 67.2L30.912 60.288C29.6402 58.9231 28.9478 57.1179 28.9807 55.2526C29.0136 53.3873 29.7693 51.6076 31.0884 50.2884C32.4076 48.9693 34.1873 48.2136 36.0526 48.1807C37.9179 48.1478 39.7231 48.8402 41.088 50.112ZM93.888 50.112L100.8 57.024L107.712 50.112C108.371 49.4046 109.166 48.8372 110.049 48.4437C110.932 48.0502 111.886 47.8386 112.853 47.8215C113.819 47.8045 114.78 47.9823 115.676 48.3444C116.573 48.7065 117.387 49.2455 118.071 49.9292C118.754 50.6129 119.293 51.4273 119.656 52.3239C120.018 53.2204 120.196 54.1807 120.178 55.1474C120.161 56.1142 119.95 57.0676 119.556 57.9508C119.163 58.834 118.595 59.6288 117.888 60.288L110.986 67.2L117.898 74.0928C119.248 75.4435 120.007 77.2754 120.007 79.1856C120.007 81.0958 119.248 82.9277 117.898 84.2784C116.547 85.6291 114.715 86.3879 112.805 86.3879C110.895 86.3879 109.063 85.6291 107.712 84.2784L100.8 77.376L93.888 84.288C93.2288 84.9954 92.434 85.5628 91.5508 85.9563C90.6676 86.3498 89.7142 86.5614 88.7474 86.5785C87.7807 86.5955 86.8204 86.4177 85.9239 86.0556C85.0273 85.6935 84.2129 85.1545 83.5292 84.4708C82.8455 83.7871 82.3065 82.9727 81.9444 82.0761C81.5823 81.1796 81.4045 80.2193 81.4215 79.2526C81.4386 78.2858 81.6502 77.3324 82.0437 76.4492C82.4372 75.566 83.0046 74.7712 83.712 74.112L90.624 67.2L83.712 60.288C82.4402 58.9231 81.7478 57.1179 81.7807 55.2526C81.8136 53.3873 82.5693 51.6076 83.8884 50.2884C85.2076 48.9693 86.9873 48.2136 88.8526 48.1807C90.7179 48.1478 92.5231 48.8402 93.888 50.112V50.112ZM132 88.8C132 86.8904 132.759 85.0591 134.109 83.7088C135.459 82.3586 137.29 81.6 139.2 81.6H156C157.91 81.6 159.741 82.3586 161.091 83.7088C162.441 85.0591 163.2 86.8904 163.2 88.8C163.2 90.7096 162.441 92.5409 161.091 93.8912C159.741 95.2414 157.91 96 156 96H139.2C137.29 96 135.459 95.2414 134.109 93.8912C132.759 92.5409 132 90.7096 132 88.8V88.8Z" fill="#545454"/>
</svg>
